<?xml version="1.0" encoding="UTF-8" standalone="no"?>
<svg
   xmlns:dc="http://purl.org/dc/elements/1.1/"
   xmlns:cc="http://creativecommons.org/ns#"
   xmlns:rdf="http://www.w3.org/1999/02/22-rdf-syntax-ns#"
   xmlns:svg="http://www.w3.org/2000/svg"
   xmlns="http://www.w3.org/2000/svg"
   xmlns:sodipodi="http://sodipodi.sourceforge.net/DTD/sodipodi-0.dtd"
   xmlns:inkscape="http://www.inkscape.org/namespaces/inkscape"
   viewBox="0 0 64 64"
   x="0px"
   y="0px"
   version="1.1"
   id="svg38"
   sodipodi:docname="history.svg"
   width="64"
   height="64"
   inkscape:version="1.0.1 (3bc2e813f5, 2020-09-07)">
  <metadata
     id="metadata44">
    <rdf:RDF>
      <cc:Work
         rdf:about="">
        <dc:format>image/svg+xml</dc:format>
        <dc:type
           rdf:resource="http://purl.org/dc/dcmitype/StillImage" />
        <dc:title>history, orders, recent, transaction</dc:title>
      </cc:Work>
    </rdf:RDF>
  </metadata>
  <defs
     id="defs42" />
  <sodipodi:namedview
     pagecolor="#ffffff"
     bordercolor="#666666"
     borderopacity="1"
     objecttolerance="10"
     gridtolerance="10"
     guidetolerance="10"
     inkscape:pageopacity="0"
     inkscape:pageshadow="2"
     inkscape:window-width="1920"
     inkscape:window-height="1057"
     id="namedview40"
     showgrid="false"
     inkscape:zoom="10.6375"
     inkscape:cx="3.2237809"
     inkscape:cy="31.889579"
     inkscape:window-x="1912"
     inkscape:window-y="-8"
     inkscape:window-maximized="1"
     inkscape:current-layer="svg38"
     inkscape:document-rotation="0" />
  <title
     id="title28">history, orders, recent, transaction</title>
  <g
     id="g32"
     style="fill:#ffffff;fill-opacity:1">
    <path
       d="m 14.9209,16.0264 a 1.5,1.5 0 0 1 1.5,-1.5 H 41.36 a 1.5,1.5 0 1 1 0,3 H 16.4209 a 1.5,1.5 0 0 1 -1.5,-1.5 z m 1.5,10.2959 H 41.36 a 1.5,1.5 0 0 0 0,-3 H 16.4209 a 1.5,1.5 0 0 0 0,3 z m 0,8.7949 H 41.36 a 1.5,1.5 0 0 0 0,-3 H 16.4209 a 1.5,1.5 0 0 0 0,3 z m 17.9512,5.7949 H 16.4209 a 1.5,1.5 0 1 0 0,3 h 17.9512 a 1.5,1.5 0 0 0 0,-3 z m 24.2373,7.61 A 10.9405,10.9405 0 0 1 38.142,53.9092 H 13.8906 a 8.51,8.51 0 0 1 -8.5,-8.5 v -32.38 a 8.51,8.51 0 0 1 8.5,-8.5 h 30 a 8.51,8.51 0 0 1 8.5,8.5 v 25.635 a 10.9506,10.9506 0 0 1 6.2188,9.8583 z M 36.9839,50.9092 A 10.8834,10.8834 0 0 1 49.3906,37.7253 v -24.696 a 5.5068,5.5068 0 0 0 -5.5,-5.5 h -30 a 5.5066,5.5066 0 0 0 -5.5,5.5 v 32.38 a 5.5066,5.5066 0 0 0 5.5,5.5 z m 18.6255,-2.3867 a 7.9478,7.9478 0 1 0 -7.9473,7.9482 7.9567,7.9567 0 0 0 7.9473,-7.9482 z m -4.128,-1.5 h -2.3193 v -2.89 a 1.5,1.5 0 0 0 -3,0 v 4.39 a 1.5,1.5 0 0 0 1.5,1.5 h 3.8193 a 1.5,1.5 0 0 0 0,-3 z"
       id="path30"
       style="fill:#ffffff;fill-opacity:1" />
  </g>
</svg>
