<?xml version="1.0" encoding="UTF-8" standalone="no"?>
<svg
   xmlns:dc="http://purl.org/dc/elements/1.1/"
   xmlns:cc="http://creativecommons.org/ns#"
   xmlns:rdf="http://www.w3.org/1999/02/22-rdf-syntax-ns#"
   xmlns:svg="http://www.w3.org/2000/svg"
   xmlns="http://www.w3.org/2000/svg"
   xmlns:sodipodi="http://sodipodi.sourceforge.net/DTD/sodipodi-0.dtd"
   xmlns:inkscape="http://www.inkscape.org/namespaces/inkscape"
   data-name="Layer 1"
   viewBox="0 0 100 100"
   x="0px"
   y="0px"
   version="1.1"
   id="svg12"
   sodipodi:docname="view.svg"
   width="100"
   height="100"
   inkscape:version="1.0.1 (3bc2e813f5, 2020-09-07)">
  <metadata
     id="metadata18">
    <rdf:RDF>
      <cc:Work
         rdf:about="">
        <dc:format>image/svg+xml</dc:format>
        <dc:type
           rdf:resource="http://purl.org/dc/dcmitype/StillImage" />
        <dc:title>B___46</dc:title>
      </cc:Work>
    </rdf:RDF>
  </metadata>
  <defs
     id="defs16" />
  <sodipodi:namedview
     pagecolor="#ffffff"
     bordercolor="#666666"
     borderopacity="1"
     objecttolerance="10"
     gridtolerance="10"
     guidetolerance="10"
     inkscape:pageopacity="0"
     inkscape:pageshadow="2"
     inkscape:window-width="1920"
     inkscape:window-height="1057"
     id="namedview14"
     showgrid="false"
     inkscape:zoom="7.12"
     inkscape:cx="50"
     inkscape:cy="56.882022"
     inkscape:window-x="1912"
     inkscape:window-y="-8"
     inkscape:window-maximized="1"
     inkscape:current-layer="svg12"
     inkscape:document-rotation="0" />
  <title
     id="title2">B___46</title>
  <path
     d="m 50,21.92285 c -24.416,0 -43.5957,25.20459 -44.40039,26.27735 a 3,3 0 0 0 0,3.5996 C 6.4043,52.87256 25.584,78.07715 50,78.07715 c 24.416,0 43.5957,-25.20459 44.40039,-26.27735 a 3,3 0 0 0 0,-3.5996 C 93.5957,47.12744 74.416,21.92285 50,21.92285 Z m 0,50.1543 C 32.11328,72.07715 16.582,55.55566 11.86426,49.99756 16.5752,44.436 32.07324,27.92285 50,27.92285 c 17.88672,0 33.418,16.52149 38.13574,22.07959 C 83.4248,55.564 67.92676,72.07715 50,72.07715 Z"
     id="path4"
     style="fill:#ffffff;fill-opacity:1" />
  <path
     d="M 50,33.04688 A 16.95313,16.95313 0 1 0 66.95313,50 16.97243,16.97243 0 0 0 50,33.04688 Z m 0,27.90625 A 10.95313,10.95313 0 1 1 60.95313,50 10.96525,10.96525 0 0 1 50,60.95313 Z"
     id="path6"
     style="fill:#ffffff;fill-opacity:1" />
</svg>
